<?xml version="1.0" standalone="no"?>
<!DOCTYPE svg PUBLIC "-//W3C//DTD SVG 20010904//EN"
 "http://www.w3.org/TR/2001/REC-SVG-20010904/DTD/svg10.dtd">
<svg version="1.0" xmlns="http://www.w3.org/2000/svg"
 width="742.000000pt" height="742.000000pt" viewBox="0 0 742.000000 742.000000"
 preserveAspectRatio="xMidYMid meet">

<g transform="translate(0.000000,742.000000) scale(0.100000,-0.100000)"
fill="#000000" stroke="none">
<path d="M0 3710 l0 -3710 3710 0 3710 0 0 3710 0 3710 -3710 0 -3710 0 0
-3710z m4620 1822 c169 -86 208 -334 73 -469 -117 -117 -310 -116 -425 4 -157
163 -76 435 147 494 53 14 146 1 205 -29z m-1440 -1047 l0 -985 -245 0 -245 0
0 985 0 985 245 0 245 0 0 -985z m-894 262 c177 -90 212 -330 70 -472 -111
-112 -286 -116 -405 -9 -66 59 -95 127 -95 219 0 126 63 222 180 271 78 33
175 30 250 -9z m3174 -262 l0 -245 -980 0 -980 0 0 245 0 245 980 0 980 0 0
-245z m-730 -1545 l0 -980 -250 0 -250 0 0 980 0 980 250 0 250 0 0 -980z
m667 264 c181 -87 221 -338 77 -476 -146 -140 -397 -96 -474 83 -30 72 -36
143 -16 212 52 178 244 263 413 181z m-1477 -264 l0 -250 -982 2 -983 3 -3
235 c-1 129 0 240 2 247 4 10 202 13 986 13 l980 0 0 -250z m-862 -520 c179
-77 228 -313 97 -468 -14 -17 -53 -45 -87 -61 -105 -53 -240 -39 -325 33 -120
104 -137 305 -35 418 19 21 49 49 65 60 72 51 190 59 285 18z"/>
</g>
</svg>
