<svg id="visual" viewBox="0 0 900 600" width="900" height="600" xmlns="http://www.w3.org/2000/svg" xmlns:xlink="http://www.w3.org/1999/xlink" version="1.1"><path d="M0 151L12.5 151C25 151 50 151 75 142C100 133 125 115 150 108C175 101 200 105 225 115C250 125 275 141 300 160C325 179 350 201 375 197C400 193 425 163 450 157C475 151 500 169 525 174C550 179 575 171 600 150C625 129 650 95 675 90C700 85 725 109 750 122C775 135 800 137 825 138C850 139 875 139 887.5 139L900 139L900 0L887.5 0C875 0 850 0 825 0C800 0 775 0 750 0C725 0 700 0 675 0C650 0 625 0 600 0C575 0 550 0 525 0C500 0 475 0 450 0C425 0 400 0 375 0C350 0 325 0 300 0C275 0 250 0 225 0C200 0 175 0 150 0C125 0 100 0 75 0C50 0 25 0 12.5 0L0 0Z" fill="#582873"></path><path d="M0 181L12.5 183C25 185 50 189 75 184C100 179 125 165 150 164C175 163 200 175 225 181C250 187 275 187 300 203C325 219 350 251 375 258C400 265 425 247 450 241C475 235 500 241 525 236C550 231 575 215 600 193C625 171 650 143 675 146C700 149 725 183 750 195C775 207 800 197 825 195C850 193 875 199 887.5 202L900 205L900 137L887.5 137C875 137 850 137 825 136C800 135 775 133 750 120C725 107 700 83 675 88C650 93 625 127 600 148C575 169 550 177 525 172C500 167 475 149 450 155C425 161 400 191 375 195C350 199 325 177 300 158C275 139 250 123 225 113C200 103 175 99 150 106C125 113 100 131 75 140C50 149 25 149 12.5 149L0 149Z" fill="#6c287b"></path><path d="M0 205L12.5 213C25 221 50 237 75 240C100 243 125 233 150 232C175 231 200 239 225 245C250 251 275 255 300 267C325 279 350 299 375 298C400 297 425 275 450 271C475 267 500 281 525 277C550 273 575 251 600 233C625 215 650 201 675 206C700 211 725 235 750 243C775 251 800 243 825 239C850 235 875 235 887.5 235L900 235L900 203L887.5 200C875 197 850 191 825 193C800 195 775 205 750 193C725 181 700 147 675 144C650 141 625 169 600 191C575 213 550 229 525 234C500 239 475 233 450 239C425 245 400 263 375 256C350 249 325 217 300 201C275 185 250 185 225 179C200 173 175 161 150 162C125 163 100 177 75 182C50 187 25 183 12.5 181L0 179Z" fill="#802882"></path><path d="M0 343L12.5 339C25 335 50 327 75 327C100 327 125 335 150 331C175 327 200 311 225 305C250 299 275 303 300 318C325 333 350 359 375 372C400 385 425 385 450 378C475 371 500 357 525 349C550 341 575 339 600 329C625 319 650 301 675 308C700 315 725 347 750 352C775 357 800 335 825 320C850 305 875 297 887.5 293L900 289L900 233L887.5 233C875 233 850 233 825 237C800 241 775 249 750 241C725 233 700 209 675 204C650 199 625 213 600 231C575 249 550 271 525 275C500 279 475 265 450 269C425 273 400 295 375 296C350 297 325 277 300 265C275 253 250 249 225 243C200 237 175 229 150 230C125 231 100 241 75 238C50 235 25 219 12.5 211L0 203Z" fill="#952587"></path><path d="M0 379L12.5 380C25 381 50 383 75 385C100 387 125 389 150 385C175 381 200 371 225 365C250 359 275 357 300 367C325 377 350 399 375 409C400 419 425 417 450 411C475 405 500 395 525 387C550 379 575 373 600 362C625 351 650 335 675 348C700 361 725 403 750 410C775 417 800 389 825 369C850 349 875 337 887.5 331L900 325L900 287L887.5 291C875 295 850 303 825 318C800 333 775 355 750 350C725 345 700 313 675 306C650 299 625 317 600 327C575 337 550 339 525 347C500 355 475 369 450 376C425 383 400 383 375 370C350 357 325 331 300 316C275 301 250 297 225 303C200 309 175 325 150 329C125 333 100 325 75 325C50 325 25 333 12.5 337L0 341Z" fill="#aa208a"></path><path d="M0 475L12.5 473C25 471 50 467 75 459C100 451 125 439 150 430C175 421 200 415 225 409C250 403 275 397 300 405C325 413 350 435 375 451C400 467 425 477 450 472C475 467 500 447 525 447C550 447 575 467 600 464C625 461 650 435 675 434C700 433 725 457 750 459C775 461 800 441 825 425C850 409 875 397 887.5 391L900 385L900 323L887.5 329C875 335 850 347 825 367C800 387 775 415 750 408C725 401 700 359 675 346C650 333 625 349 600 360C575 371 550 377 525 385C500 393 475 403 450 409C425 415 400 417 375 407C350 397 325 375 300 365C275 355 250 357 225 363C200 369 175 379 150 383C125 387 100 385 75 383C50 381 25 379 12.5 378L0 377Z" fill="#bf198c"></path><path d="M0 601L12.5 601C25 601 50 601 75 601C100 601 125 601 150 601C175 601 200 601 225 601C250 601 275 601 300 601C325 601 350 601 375 601C400 601 425 601 450 601C475 601 500 601 525 601C550 601 575 601 600 601C625 601 650 601 675 601C700 601 725 601 750 601C775 601 800 601 825 601C850 601 875 601 887.5 601L900 601L900 383L887.5 389C875 395 850 407 825 423C800 439 775 459 750 457C725 455 700 431 675 432C650 433 625 459 600 462C575 465 550 445 525 445C500 445 475 465 450 470C425 475 400 465 375 449C350 433 325 411 300 403C275 395 250 401 225 407C200 413 175 419 150 428C125 437 100 449 75 457C50 465 25 469 12.5 471L0 473Z" fill="#d40e8c"></path></svg>