<svg xmlns="http://www.w3.org/2000/svg" width="288" height="288"><svg xmlns="http://www.w3.org/2000/svg" width="288" height="288" viewBox="0 0 64 64"><path fill="#b40b76" d="m63.91 38.65-8.46-23.18a4.04 4.04 0 0 0 2.75-3.75.965.965 0 0 0-.95-.99c-.56 0-.98.42-.99.95-.02 1.16-.95 2.08-2.14 2.09-.7 0-1.36-.35-1.76-.94a.99.99 0 0 0-.68-.42l-16.71-2.27V6.12c.37-.16.71-.39 1.01-.68.59-.6.91-1.39.91-2.21 0-1.73-1.41-3.14-3.14-3.14h-3.48c-.83 0-1.61.32-2.22.92-.59.59-.92 1.38-.92 2.22 0 1.45.98 2.67 2.32 3.03v3.12L12.57 7.07a.965.965 0 0 0-.95.44c-.38.59-1.03.94-1.74.94-1.11 0-2.04-.87-2.13-1.99-.04-.53-.5-.95-1.04-.9-.53.04-.94.5-.9 1.04a4.064 4.064 0 0 0 2.76 3.55L.05 33.44c-.04.1-.04.2-.04.3 0 .02-.01.03-.01.04V33.85c.05 4.75 4.45 8.61 9.87 8.61 5.44 0 9.87-3.89 9.87-8.68 0-.15-.04-.28-.1-.41l-8.47-23.21c.64-.22 1.22-.58 1.68-1.09l16.57 2.27v42.69h-4.34c-.54 0-.97.43-.97.97v3.24h-3.02c-.54 0-.97.43-.97.97v3.74c0 .54.43.97.97.97H42.9c.54 0 .97-.43.97-.97v-3.74c0-.54-.43-.97-.97-.97h-3.02V55c0-.54-.43-.97-.97-.97h-3.95V12.09l16.06 2.18c.47.56 1.1.95 1.79 1.19l-8.47 23.21c0 .01 0 .01-.01.02l-.01.03c-.01.03-.01.07-.01.1-.02.08-.05.15-.05.24 0 4.79 4.43 8.68 9.87 8.68 5.44 0 9.87-3.89 9.87-8.68 0-.15-.04-.28-.09-.41zM9.87 12.24l7.5 20.57H2.35l7.52-20.57zm0 28.28c-3.99 0-7.3-2.51-7.85-5.77h15.7c-.55 3.26-3.86 5.77-7.85 5.77zm32.07 21.46H22.06v-1.8h19.87v1.8zm-4-3.74H26.06v-2.27h11.88v2.27zm-6.57-4.21V5.4c0-.54-.43-.97-.97-.97h-.15a1.204 1.204 0 0 1-.86-2.04c.24-.23.54-.36.86-.36h3.48c.66 0 1.2.54 1.2 1.2 0 .32-.13.62-.35.85-.19.19-.44.31-.69.34-.5.05-.87.47-.87.97v48.65h-1.65zm30.27-15.94H46.61l7.51-20.58 7.52 20.58zm-7.51 7.71c-3.99 0-7.3-2.51-7.85-5.77h15.7c-.56 3.26-3.86 5.77-7.85 5.77z" class="color000 svgShape"/></svg></svg>