<svg xmlns="http://www.w3.org/2000/svg" width="288" height="288"><svg xmlns="http://www.w3.org/2000/svg" width="288" height="288" viewBox="0 0 80 80"><path fill="#fff" d="M42 30h2a.993.993 0 0 0 .89-.563C47.021 32.776 50.751 35 55 35s7.978-2.224 10.11-5.563c.164.33.496.563.89.563h2c1.654 0 3-1.346 3-3v-6a2.994 2.994 0 0 0-2.027-2.824C68.69 10.865 62.671 5 55.292 5h-.584c-7.379 0-13.398 5.865-13.681 13.176A2.994 2.994 0 0 0 39 21v6c0 1.654 1.346 3 3 3zm13 3c-5.514 0-10-4.486-10-10s4.486-10 10-10 10 4.486 10 10-4.486 10-10 10zm14-6a1 1 0 0 1-1 1h-1v-8h1a1 1 0 0 1 1 1v6zM54.708 7h.584c6.217 0 11.303 4.874 11.672 11H66c-.034 0-.063.016-.096.02C64.008 13.883 59.84 11 55 11s-9.008 2.885-10.904 7.02c-.033-.004-.062-.02-.096-.02h-.964c.369-6.126 5.455-11 11.672-11zM41 21a1 1 0 0 1 1-1h1v8h-1a1 1 0 0 1-1-1v-6zm20.706 16a1 1 0 0 0-1 1c0 1.419-2.344 3-5.706 3s-5.706-1.581-5.706-3a1 1 0 0 0-1-1c-4.785 0-9.135 2.287-11.509 6H14c-1.654 0-3 1.346-3 3v23.184A2.995 2.995 0 0 0 9 72c0 .352.072.686.184 1H6a1 1 0 1 0 0 2h68a1 1 0 0 0 1-1V49c0-6.617-5.964-12-13.294-12zM14 45h34a1 1 0 0 1 1 1v23H13V46a1 1 0 0 1 1-1zm-2 28a1 1 0 0 1 0-2h38a1 1 0 0 1 0 2H12zm61 0H61c-1.103 0-2-.897-2-2s.897-2 2-2h6a1 1 0 0 0 1-1V52a1 1 0 1 0-2 0v15h-5c-2.206 0-4 1.794-4 4 0 .732.212 1.41.556 2h-4.74c.112-.314.184-.648.184-1a2.995 2.995 0 0 0-2-2.816V46c0-1.654-1.346-3-3-3h-8.718c1.946-2.299 4.894-3.76 8.168-3.973C48.161 41.322 51.224 43 55 43s6.838-1.678 7.55-3.973C68.385 39.411 73 43.737 73 49v24z" class="color000 svgShape"/><path fill="#fff" d="M31 61c2.206 0 4-1.794 4-4s-1.794-4-4-4-4 1.794-4 4 1.794 4 4 4zm0-6c1.103 0 2 .897 2 2s-.897 2-2 2-2-.897-2-2 .897-2 2-2zM16 67h30a1 1 0 1 0 0-2H16a1 1 0 1 0 0 2z" class="color000 svgShape"/></svg></svg>