<svg xmlns="http://www.w3.org/2000/svg" width="288" height="288"><svg xmlns="http://www.w3.org/2000/svg" width="288" height="288" enable-background="new 0 0 64 64" viewBox="0 0 64 64"><path fill="#582873" d="M32,42c-5.514,0-10-4.486-10-10c0-0.553,0.447-1,1-1s1,0.447,1,1c0,4.411,3.589,8,8,8s8-3.589,8-8c0-0.553,0.447-1,1-1
				s1,0.447,1,1C42,37.514,37.514,42,32,42z" class="color000 svgShape"/><path fill="#582873" d="M23 33c-.553 0-1-.447-1-1v-7c0-.553.447-1 1-1s1 .447 1 1v7C24 32.553 23.553 33 23 33zM41 33c-.553 0-1-.447-1-1v-7.001c0-.553.447-1 1-1s1 .447 1 1V32C42 32.553 41.553 33 41 33zM23 64c-.553 0-1-.447-1-1V48c0-.553.447-1 1-1s1 .447 1 1v15C24 63.553 23.553 64 23 64zM41 64c-.553 0-1-.447-1-1V48c0-.553.447-1 1-1s1 .447 1 1v15C42 63.553 41.553 64 41 64zM28 44c-.553 0-1-.447-1-1v-2.937c0-.553.447-1 1-1s1 .447 1 1V43C29 43.553 28.553 44 28 44zM36 44c-.553 0-1-.447-1-1v-2.937c0-.553.447-1 1-1s1 .447 1 1V43C37 43.553 36.553 44 36 44zM47 44c-.553 0-1-.447-1-1s.447-1 1-1c3.309 0 6-2.691 6-6 0-.553.447-1 1-1s1 .447 1 1C55 40.411 51.411 44 47 44z" class="color000 svgShape"/><path fill="#582873" d="M47,49c-0.553,0-1-0.447-1-1s0.447-1,1-1c6.065,0,11-4.935,11-11c0-0.553,0.447-1,1-1s1,0.447,1,1
					C60,43.168,54.168,49,47,49z" class="color000 svgShape"/><path fill="#582873" d="M59,36.5c-0.553,0-1-0.447-1-1c0-0.827-0.673-1.5-1.5-1.5S55,34.673,55,35.5c0,0.553-0.447,1-1,1s-1-0.447-1-1
					c0-1.93,1.57-3.5,3.5-3.5s3.5,1.57,3.5,3.5C60,36.053,59.553,36.5,59,36.5z" class="color000 svgShape"/><path fill="#582873" d="M59 37c-.553 0-1-.447-1-1v-.5c0-.553.447-1 1-1s1 .447 1 1V36C60 36.553 59.553 37 59 37zM54 37c-.553 0-1-.447-1-1v-.5c0-.553.447-1 1-1s1 .447 1 1V36C55 36.553 54.553 37 54 37zM47 44.001H36c-.553 0-1-.447-1-1s.447-1 1-1h11c.553 0 1 .447 1 1S47.553 44.001 47 44.001zM47 49h-5.935c-.553 0-1-.447-1-1s.447-1 1-1H47c.553 0 1 .447 1 1S47.553 49 47 49zM17 44c-4.411 0-8-3.589-8-8 0-.553.447-1 1-1s1 .447 1 1c0 3.309 2.691 6 6 6 .553 0 1 .447 1 1S17.553 44 17 44z" class="color000 svgShape"/><path fill="#582873" d="M17,49C9.832,49,4,43.168,4,36c0-0.553,0.447-1,1-1s1,0.447,1,1c0,6.065,4.935,11,11,11c0.553,0,1,0.447,1,1
					S17.553,49,17,49z" class="color000 svgShape"/><path fill="#582873" d="M10,36.5c-0.553,0-1-0.447-1-1C9,34.673,8.327,34,7.5,34S6,34.673,6,35.5c0,0.553-0.447,1-1,1s-1-0.447-1-1
					C4,33.57,5.57,32,7.5,32s3.5,1.57,3.5,3.5C11,36.053,10.553,36.5,10,36.5z" class="color000 svgShape"/><path fill="#582873" d="M5 37c-.553 0-1-.447-1-1v-.5c0-.553.447-1 1-1s1 .447 1 1V36C6 36.553 5.553 37 5 37zM10 37c-.553 0-1-.447-1-1v-.5c0-.553.447-1 1-1s1 .447 1 1V36C11 36.553 10.553 37 10 37zM28 44.001H17c-.553 0-1-.447-1-1s.447-1 1-1h11c.553 0 1 .447 1 1S28.553 44.001 28 44.001zM22.935 49H17c-.553 0-1-.447-1-1s.447-1 1-1h5.935c.553 0 1 .447 1 1S23.487 49 22.935 49zM41 25.999c-.553 0-1-.447-1-1C40 23.346 38.654 22 37 22c-.553 0-1-.447-1-1s.447-1 1-1c2.757 0 5 2.242 5 4.999C42 25.552 41.553 25.999 41 25.999z" class="color000 svgShape"/><path fill="#582873" d="M37 22c-.553 0-1-.447-1-1v-4c0-.553.447-1 1-1s1 .447 1 1v4C38 21.553 37.553 22 37 22zM23 26c-.553 0-1-.447-1-1 0-4.963 4.037-9 9-9 .553 0 1 .447 1 1s-.447 1-1 1c-3.859 0-7 3.141-7 7C24 25.553 23.553 26 23 26zM40.999 29.025c-.192 0-.387-.056-.559-.171l-3-2.025c-.458-.31-.578-.931-.27-1.389.309-.457.929-.578 1.389-.27l3 2.025c.458.31.578.931.27 1.389C41.636 28.871 41.32 29.025 40.999 29.025z" class="color000 svgShape"/><path fill="#582873" d="M32.5,28c-3.612,0-6.687-1.008-6.815-1.051c-0.523-0.175-0.807-0.74-0.634-1.264c0.174-0.524,0.74-0.809,1.264-0.635
					C26.344,25.061,29.223,26,32.5,26c3.178,0,5.04-0.888,5.059-0.897c0.494-0.24,1.094-0.037,1.337,0.457s0.043,1.09-0.449,1.336
					C38.355,26.94,36.186,28,32.5,28z" class="color000 svgShape"/><path fill="#582873" d="M23.001,29.025c-0.321,0-0.637-0.154-0.83-0.44c-0.309-0.458-0.188-1.079,0.27-1.389l3-2.025
					c0.459-0.309,1.079-0.188,1.389,0.27c0.309,0.458,0.188,1.079-0.27,1.389l-3,2.025C23.388,28.97,23.193,29.025,23.001,29.025z" class="color000 svgShape"/><g fill="#582873" class="color000 svgShape"><path d="M37,18h-6c-0.553,0-1-0.447-1-1s0.447-1,1-1h6c0.553,0,1,0.447,1,1S37.553,18,37,18z" class="color000 svgShape"/></g><g fill="#582873" class="color000 svgShape"><path d="M13,20c-0.256,0-0.512-0.098-0.707-0.293c-0.391-0.391-0.391-1.023,0-1.414l2-2c0.391-0.391,1.023-0.391,1.414,0
				s0.391,1.023,0,1.414l-2,2C13.512,19.902,13.256,20,13,20z" class="color000 svgShape"/><path d="M15,22c-0.256,0-0.512-0.098-0.707-0.293l-2-2c-0.391-0.391-0.391-1.023,0-1.414s1.023-0.391,1.414,0l2,2
				c0.391,0.391,0.391,1.023,0,1.414C15.512,21.902,15.256,22,15,22z" class="color000 svgShape"/><path d="M13,24c-0.256,0-0.512-0.098-0.707-0.293c-0.391-0.391-0.391-1.023,0-1.414l2-2c0.391-0.391,1.023-0.391,1.414,0
				s0.391,1.023,0,1.414l-2,2C13.512,23.902,13.256,24,13,24z" class="color000 svgShape"/><path d="M15 26c-.256 0-.512-.098-.707-.293l-2-2c-.391-.391-.391-1.023 0-1.414s1.023-.391 1.414 0l2 2c.391.391.391 1.023 0 1.414C15.512 25.902 15.256 26 15 26zM48.001 12c-.256 0-.512-.098-.707-.293-.391-.391-.391-1.023 0-1.414l2-2c.391-.391 1.023-.391 1.414 0s.391 1.023 0 1.414l-2 2C48.513 11.902 48.257 12 48.001 12z" class="color000 svgShape"/><path d="M50.001 10c-.256 0-.512-.098-.707-.293l-2-2c-.391-.391-.391-1.023 0-1.414s1.023-.391 1.414 0l2 2c.391.391.391 1.023 0 1.414C50.513 9.902 50.257 10 50.001 10zM48.001 16c-.256 0-.512-.098-.707-.293-.391-.391-.391-1.023 0-1.414l2-2c.391-.391 1.023-.391 1.414 0s.391 1.023 0 1.414l-2 2C48.513 15.902 48.257 16 48.001 16z" class="color000 svgShape"/><path d="M50.001 14c-.256 0-.512-.098-.707-.293l-2-2c-.391-.391-.391-1.023 0-1.414s1.023-.391 1.414 0l2 2c.391.391.391 1.023 0 1.414C50.513 13.902 50.257 14 50.001 14zM48.001 8c-.256 0-.512-.098-.707-.293-.391-.391-.391-1.023 0-1.414l2-2c.391-.391 1.023-.391 1.414 0s.391 1.023 0 1.414l-2 2C48.513 7.902 48.257 8 48.001 8z" class="color000 svgShape"/><path d="M50.001 6c-.256 0-.512-.098-.707-.293l-2-2c-.391-.391-.391-1.023 0-1.414s1.023-.391 1.414 0l2 2c.391.391.391 1.023 0 1.414C50.513 5.902 50.257 6 50.001 6zM4.03 16c-.553 0-1.005-.447-1.005-1s.442-1 .994-1H4.03c.552 0 1 .447 1 1S4.582 16 4.03 16zM12.03 2c-.553 0-1.005-.447-1.005-1s.442-1 .994-1h.011c.552 0 1 .447 1 1S12.582 2 12.03 2zM60.03 5c-.553 0-1.005-.447-1.005-1s.442-1 .994-1h.011c.552 0 1 .447 1 1S60.582 5 60.03 5zM48.03 30c-.553 0-1.005-.447-1.005-1s.442-1 .994-1h.011c.552 0 1 .447 1 1S48.582 30 48.03 30zM32 9c-.553 0-1-.447-1-1V4c0-.553.447-1 1-1s1 .447 1 1v4C33 8.553 32.553 9 32 9z" class="color000 svgShape"/><path d="M33 7h-2c-.553 0-1-.447-1-1s.447-1 1-1h2c.553 0 1 .447 1 1S33.553 7 33 7zM57 25c-.553 0-1-.447-1-1v-4c0-.553.447-1 1-1s1 .447 1 1v4C58 24.553 57.553 25 57 25z" class="color000 svgShape"/><path d="M58,23h-2c-0.553,0-1-0.447-1-1s0.447-1,1-1h2c0.553,0,1,0.447,1,1S58.553,23,58,23z" class="color000 svgShape"/></g><g fill="#582873" class="color000 svgShape"><path d="M32,47c-2.757,0-5-1.796-5-4.004c0-0.553,0.447-1,1-1s1,0.447,1,1C29,44.082,30.374,45,32,45s3-0.918,3-2.004
			c0-0.553,0.447-1,1-1s1,0.447,1,1C37,45.204,34.757,47,32,47z" class="color000 svgShape"/></g><g fill="#582873" class="color000 svgShape"><path d="M17.999,49c-0.553,0-1-0.447-1-1v-5.004c0-0.553,0.447-1,1-1s1,0.447,1,1V48C18.999,48.553,18.552,49,17.999,49z" class="color000 svgShape"/></g><g fill="#582873" class="color000 svgShape"><path d="M45.999,49c-0.553,0-1-0.447-1-1v-5.004c0-0.553,0.447-1,1-1s1,0.447,1,1V48C46.999,48.553,46.552,49,45.999,49z" class="color000 svgShape"/></g></svg></svg>